<svg xmlns="http://www.w3.org/2000/svg" viewBox="0 0 22 22">
  <defs>
    <style type="text/css" id="current-color-scheme">
      .ColorScheme-Text { color: #232629; }
    </style>
  </defs>
  <path class="ColorScheme-Text" fill="currentColor" fill-rule="evenodd" d="
    M3.5,3 Q 11,4.5 18.5,3 A2.5,2.5 0 0,1 21,5.5 Q 19.5,11 21,16.5 A2.5,2.5 0 0,1 18.5,19 Q 11,17.5 3.5,19 A2.5,2.5 0 0,1 1,16.5 Q 2.5,11 1,5.5 A2.5,2.5 0 0,1 3.5,3 Z
    M5.5,6.1 L9.0,8.1 A1,1 0 0,1 9.0,9.9 L5.5,11.9 A1,1 0 0,1 4.5,10.1 L6.5,9.0 L4.5,7.9 A1,1 0 0,1 5.5,6.1 Z
    M11.5,10 H14.5 A1,1 0 0,1 14.5,12 H11.5 A1,1 0 0,1 11.5,10 Z
  "/>
</svg>
